<svg width="40" height="40" viewBox="0 0 40 40" fill="none" xmlns="http://www.w3.org/2000/svg">
  <g clip-path="url(#clip0_119_9)">
    <path
      d="M20 -0.125C8.88333 -0.125 -0.125 8.88333 -0.125 20C-0.125 31.1167 8.88333 40.125 20 40.125C31.1167 40.125 40.125 31.1167 40.125 20C40.125 8.88333 31.1167 -0.125 20 -0.125ZM9.45833 34.8542V31.5C9.45833 28.7208 10.5125 26.0375 12.525 24.025C14.5375 22.0125 17.125 20.9583 20 20.9583C22.7792 20.9583 25.4625 22.0125 27.475 24.025C29.4875 26.0375 30.5417 28.625 30.5417 31.5V34.8542C27.5708 36.9625 23.9292 38.2083 20 38.2083C16.0708 38.2083 12.4292 36.9625 9.45833 34.8542ZM15.2083 14.25C15.2083 11.5667 17.3167 9.45833 20 9.45833C22.6833 9.45833 24.7917 11.5667 24.7917 14.25C24.7917 16.9333 22.6833 19.0417 20 19.0417C17.3167 19.0417 15.2083 16.9333 15.2083 14.25ZM32.4583 33.225V31.5C32.4583 28.1458 31.1167 25.0792 28.8167 22.6833C27.3792 21.2458 25.75 20.2875 23.9292 19.7125C25.6542 18.4667 26.7083 16.55 26.7083 14.25C26.7083 10.5125 23.7375 7.54167 20 7.54167C16.2625 7.54167 13.2917 10.5125 13.2917 14.25C13.2917 16.4542 14.3458 18.4667 16.0708 19.7125C14.25 20.2875 12.6208 21.3417 11.1833 22.6833C8.88333 25.0792 7.54167 28.1458 7.54167 31.5V33.225C3.99583 29.9667 1.79167 25.175 1.79167 20C1.79167 9.9375 9.9375 1.79167 20 1.79167C30.0625 1.79167 38.2083 9.9375 38.2083 20C38.2083 25.175 36.0042 29.9667 32.4583 33.225Z"
      fill="#FFE382"/>
  </g>
  <defs>
    <clipPath id="clip0_119_9">
      <rect width="40" height="40" fill="white"/>
    </clipPath>
  </defs>
</svg>
